<svg width="286" height="75" viewBox="0 0 286 75" fill="none" xmlns="http://www.w3.org/2000/svg">
<path d="M38.5224 0.516475C38.2514 0.765228 37.987 1.01892 37.7111 1.25944C33.5327 4.9144 29.3528 8.56882 25.1712 12.2227C21.5491 15.3889 17.9281 18.5552 14.3082 21.7214C14.2384 21.7859 14.1902 21.8705 14.1702 21.9636C13.7487 24.226 13.3304 26.4889 12.9154 28.7524C12.4326 31.3761 11.9502 34.0015 11.4685 36.6285C10.9768 39.3126 10.4841 41.9961 9.99028 44.6792C9.5523 47.0711 9.11158 49.4637 8.66813 51.8568C8.42724 53.1746 8.1869 54.4871 7.94711 55.794L7.91426 55.9439C7.73359 55.6144 7.58577 55.3376 7.42153 55.0675C7.36217 54.9747 7.32199 54.8709 7.30337 54.7622C7.28475 54.6535 7.28807 54.5422 7.31313 54.4349C7.81243 51.7661 8.30516 49.0963 8.79131 46.4254C9.25776 43.884 9.72366 41.3427 10.189 38.8013C10.6697 36.1886 11.1498 33.5759 11.6294 30.9632L12.8267 24.4445C13.2111 22.3447 13.5943 20.2432 13.9764 18.14C14.0035 18.0395 14.0608 17.9497 14.1407 17.883C16.8189 15.5405 19.4972 13.1996 22.1754 10.8603L30.9459 3.19345C31.6982 2.5345 32.4471 1.87555 33.2043 1.21661C33.2969 1.13286 33.4104 1.07592 33.5327 1.05187C35.0525 0.776585 36.5888 0.603228 38.1315 0.532949C38.187 0.525794 38.2418 0.514783 38.2958 0.5L38.5224 0.516475Z" fill="white"/>
<path d="M32.6806 73.8425C31.8101 73.625 30.9659 73.4092 30.1184 73.2049C29.9804 73.1703 29.9624 73.111 29.9854 72.9842C30.7869 68.6384 31.5856 64.2927 32.3817 59.9469C32.6559 58.4461 32.9286 56.9454 33.2127 55.4479C33.2424 55.3362 33.3062 55.2366 33.395 55.1629C35.4754 53.3343 37.5624 51.5085 39.6559 49.6854L48.0323 42.3678C51.673 39.1829 55.3137 35.998 58.9544 32.8131L68.6759 24.3159L72.6982 20.8004C72.7277 20.7741 72.7589 20.7527 72.8082 20.7164C72.8476 20.7823 72.8854 20.8383 72.9166 20.8993C73.6599 22.3968 74.3062 23.9409 74.8514 25.5218C74.8799 25.5819 74.8852 25.6505 74.8665 25.7143C74.8477 25.7782 74.806 25.8328 74.7495 25.8677C69.7402 30.241 64.733 34.6169 59.728 38.9956L46.9959 50.1286C43.0837 53.5485 39.1714 56.9701 35.2592 60.3933C35.1874 60.4564 35.1374 60.5406 35.1163 60.6338C34.7528 62.5854 34.3931 64.5381 34.0372 66.4919L32.7955 73.2626C32.7561 73.4389 32.7233 73.625 32.6806 73.8425Z" fill="white"/>
<path d="M37.2398 74.4487L34.1356 74.1027C34.2046 73.7189 34.267 73.3729 34.331 73.0253C34.8238 70.3346 35.3165 67.6439 35.8092 64.9532C36.008 63.8676 36.205 62.7804 36.412 61.6947C36.4355 61.5829 36.4929 61.4811 36.5762 61.4032C41.4706 57.12 46.3672 52.8368 51.266 48.5537L63.9981 37.4224L75.3308 27.5102C75.3554 27.4888 75.3817 27.4723 75.4326 27.4327C75.5394 27.8363 75.6478 28.2202 75.743 28.6057C76.1319 30.1831 76.4204 31.7837 76.607 33.3979C76.6263 33.489 76.6196 33.5837 76.5877 33.6711C76.5557 33.7585 76.4998 33.8351 76.4263 33.8921C72.5819 37.2439 68.7381 40.604 64.8949 43.9723L53.9744 53.5271L40.973 64.8939C40.2306 65.543 39.4866 66.1888 38.7492 66.8428C38.6748 66.9123 38.6238 67.0032 38.603 67.1031C38.165 69.4819 37.727 71.8612 37.289 74.2411C37.2775 74.2839 37.2628 74.34 37.2398 74.4487Z" fill="white"/>
<path d="M28.2278 72.6369L25.8709 71.7621C25.9974 71.0636 26.1189 70.3915 26.2421 69.7194L27.4542 63.1299C27.9622 60.3689 28.4703 57.6079 28.9784 54.8469C29.3211 52.9799 29.6654 51.1129 30.0114 49.2459C30.0322 49.146 30.0833 49.0551 30.1576 48.9856C33.6078 45.9632 37.0602 42.943 40.5147 39.925L53.2336 28.8086L63.5185 19.8057L69.0239 14.9937C69.0534 14.9674 69.0846 14.9427 69.1356 14.9015C70.1216 16.1767 71.0219 17.5162 71.8308 18.9112L70.3526 20.2044L61.8777 27.6175L50.9704 37.1476L41.9765 45.0088C38.6424 47.9247 35.3072 50.8383 31.9708 53.7498C31.7539 53.9243 31.6088 54.173 31.5635 54.4483C31.0018 57.5684 30.4303 60.6857 29.8488 63.8004C29.3561 66.4834 28.8634 69.1675 28.3707 71.8527C28.328 72.1031 28.2803 72.3552 28.2278 72.6369Z" fill="white"/>
<path d="M76.7659 35.2795C76.7856 35.8182 76.8086 36.3026 76.8201 36.7869C76.8602 38.7024 76.7503 40.6181 76.4916 42.5164C76.4571 42.7833 76.4209 43.0502 76.37 43.3154C76.3499 43.4026 76.3034 43.4814 76.237 43.5411C74.3887 45.1621 72.5388 46.7804 70.6873 48.3959L62.4653 55.5834L51.9324 64.7955C48.7067 67.607 45.4854 70.4212 42.2684 73.2382C42.1593 73.331 42.089 73.4616 42.0713 73.604C42.0237 73.8955 41.9662 74.1838 41.9071 74.5001H38.4022C38.5401 73.7423 38.6715 73.0175 38.8062 72.2828C39.0756 70.8155 39.3493 69.3483 39.6274 67.881C39.6461 67.7872 39.6931 67.7015 39.7621 67.6355C43.1488 64.6703 46.5365 61.705 49.9254 58.7397L58.7124 51.0581L69.2748 41.8311L76.4932 35.5234L76.7659 35.2795Z" fill="white"/>
<path d="M23.8602 70.8708C23.2213 70.5281 22.5972 70.1953 21.978 69.8543C21.9532 69.8297 21.9344 69.7996 21.923 69.7665C21.9116 69.7333 21.9079 69.698 21.9123 69.6632C22.1849 68.1477 22.4658 66.6354 22.7434 65.1231L24.0573 57.9241C24.5205 55.3981 24.9847 52.8694 25.4501 50.338C25.888 47.9218 26.3304 45.5095 26.7771 43.1011C26.7933 42.9592 26.8611 42.8284 26.9677 42.7337C30.0171 40.0737 33.0654 37.4105 36.1127 34.7439L44.1605 27.7113L55.0695 18.1747L64.3919 10.0367L64.5561 9.89832L67.6767 13.053L67.4566 13.2557L53.7556 25.2287L39.5108 37.6862C35.788 40.9425 32.0614 44.1982 28.3309 47.4534C28.2125 47.5551 28.1359 47.6971 28.1157 47.8521C27.3602 51.9914 26.6014 56.1301 25.8393 60.2683L23.8996 70.7752C23.8886 70.8079 23.8754 70.8398 23.8602 70.8708Z" fill="white"/>
<path d="M58.9684 5.75354L62.4339 8.13564L60.7012 9.65122L52.1983 17.0858C48.7952 20.0599 45.3911 23.0366 41.9858 26.0162L32.5632 34.253C29.9802 36.511 27.3983 38.7696 24.8175 41.0287C24.7237 41.1142 24.6579 41.2262 24.6287 41.3499C24.1983 43.6562 23.7735 45.9625 23.3541 48.2689L21.9105 56.1268C21.4462 58.6693 20.9808 61.2106 20.5144 63.7508L19.6817 68.291C19.668 68.3434 19.6515 68.3951 19.6324 68.4458C19.1036 68.0719 18.5878 67.7111 18.077 67.3421C18.0564 67.3169 18.0416 67.2875 18.0336 67.2559C18.0256 67.2242 18.0248 67.1912 18.0311 67.1593C18.3103 65.6063 18.5928 64.054 18.8785 62.5021C19.2278 60.6 19.5771 58.6984 19.9264 56.7973C20.3414 54.5404 20.7564 52.2841 21.1714 50.0283C21.6093 47.6352 22.0473 45.2421 22.4853 42.849C22.8565 40.8238 23.2288 38.7998 23.6021 36.7768C23.6291 36.6771 23.6866 36.5884 23.7664 36.5231C25.7373 34.7901 27.7159 33.0598 29.7021 31.3323L37.8649 24.2041L48.3584 15.0315L58.6728 6.01382L58.9684 5.75354Z" fill="white"/>
<path d="M42.779 74.4025C42.774 74.2775 42.7978 74.153 42.8485 74.0387C42.8992 73.9244 42.9755 73.8234 43.0714 73.7435C47.2563 70.094 51.4373 66.4413 55.6146 62.7852L70.1746 50.0593L75.8722 45.0776L76.1005 44.8849C76.0118 45.2951 75.9362 45.6509 75.8574 46.0035C74.8885 50.1333 73.2143 54.0637 70.9088 57.6207C70.8344 57.7365 70.7443 57.8412 70.6411 57.9321C66.6314 61.4464 62.62 64.9542 58.6071 68.4555C57.7201 69.2297 56.8332 70.0029 55.9463 70.775C55.816 70.8937 55.6701 70.994 55.5127 71.0731C52.4937 72.4945 49.2911 73.4848 45.9982 74.0153C44.9897 74.1801 43.9698 74.2756 42.9548 74.4008C42.8963 74.4048 42.8376 74.4053 42.779 74.4025Z" fill="white"/>
<path d="M56.0563 4.21148L54.6307 5.45854L44.9404 13.931L34.3714 23.1694L23.7712 32.4408C22.9401 33.1679 22.1096 33.8954 21.2797 34.6236C21.2133 34.6834 21.1669 34.7621 21.1466 34.8493C20.4371 38.6931 19.7298 42.5342 19.0246 46.3726C18.2363 50.6679 17.4484 54.962 16.6612 59.2551C16.2998 61.222 15.9396 63.1884 15.5805 65.1543C15.5712 65.1993 15.5597 65.2439 15.546 65.2877C15.4967 65.2515 15.4556 65.2268 15.4211 65.1955C15.0927 64.9022 14.7937 64.5942 14.4603 64.3191C14.3802 64.2563 14.3214 64.1702 14.292 64.0725C14.2626 63.9749 14.264 63.8706 14.2961 63.7738C15.0253 59.8421 15.7491 55.9098 16.4674 51.977C17.1178 48.4406 17.7687 44.9037 18.4202 41.3663C18.937 38.546 19.4533 35.7257 19.969 32.9054C20.1119 32.1229 20.2548 31.3404 20.4042 30.5595C20.4231 30.4783 20.466 30.4048 20.5274 30.3487C24.6269 26.7607 28.728 23.1749 32.8308 19.5913L43.7529 10.0366C46.533 7.60726 49.3131 5.17629 52.0931 2.74367C52.1336 2.69876 52.1873 2.6681 52.2465 2.65623C52.3057 2.64436 52.3671 2.65191 52.4216 2.67778C53.659 3.12504 54.8722 3.63698 56.0563 4.21148Z" fill="white"/>
<path d="M11.608 61.2699C11.2795 60.8614 10.9888 60.494 10.7047 60.1168C10.6651 60.0437 10.6546 59.9584 10.6751 59.8779C10.8853 58.7066 11.1021 57.5353 11.3173 56.3657C11.7334 54.1088 12.1478 51.8519 12.5606 49.595C12.9854 47.2733 13.4114 44.9516 13.8384 42.6299L15.0062 36.2678C15.42 34.0175 15.8345 31.7661 16.2495 29.5136C16.5561 27.8409 16.8615 26.165 17.1659 24.4858C17.1896 24.3118 17.2768 24.1527 17.4107 24.0394C21.1532 20.7743 24.8941 17.5064 28.6333 14.2359L37.0474 6.87871C39.337 4.87771 41.6265 2.87505 43.9161 0.870754C43.9569 0.825479 44.0082 0.790981 44.0655 0.770297C44.1228 0.749612 44.1843 0.743382 44.2445 0.752148C45.5683 0.986074 46.8921 1.21725 48.2159 1.44569C48.2477 1.45333 48.2785 1.46437 48.3079 1.47863C48.2537 1.5297 48.2093 1.57583 48.1634 1.61702L36.3199 11.9691L25.3978 21.5238C22.8903 23.7203 20.3813 25.9113 17.8705 28.0968C17.7402 28.2049 17.6542 28.3574 17.6291 28.5251C17.0904 31.4904 16.5473 34.4518 15.9998 37.4094C15.4677 40.311 14.9377 43.2126 14.41 46.1141C13.7617 49.6516 13.1108 53.1885 12.4571 56.7248C12.1889 58.18 11.9222 59.6352 11.6573 61.0904C11.6458 61.1365 11.631 61.1777 11.608 61.2699Z" fill="white"/>
<path d="M4.60621 48.3003C4.48698 47.9563 4.3958 47.6031 4.33357 47.2443C4.30565 46.9725 4.40255 46.6875 4.45347 46.4091C4.98889 43.4867 5.52542 40.5637 6.06304 37.6402C6.58204 34.8221 7.1005 32.0029 7.61841 29.1826C8.13632 26.3623 8.65587 23.5299 9.17707 20.6854C9.46723 19.0941 9.76013 17.5016 10.0558 15.9081C10.081 15.7889 10.1314 15.6766 10.2036 15.5786C13.4908 11.0965 17.7419 7.41414 22.6416 4.80479C22.7057 4.7702 22.7714 4.7389 22.8354 4.7076C22.8524 4.70619 22.8694 4.70619 22.8864 4.7076C22.7944 4.78997 22.7221 4.8608 22.64 4.92834C18.7124 8.36256 14.7848 11.7962 10.8573 15.2293C10.7512 15.3151 10.6805 15.4371 10.6585 15.572C10.053 18.8964 9.44259 22.2202 8.82723 25.5435C8.21187 28.8668 7.60308 32.1934 7.00086 35.5233C6.41725 38.7082 5.832 41.8898 5.24511 45.0682C5.05569 46.0961 4.86736 47.1241 4.68012 48.152C4.67027 48.2015 4.65548 48.2509 4.64399 48.2987L4.60621 48.3003Z" fill="white"/>
<path d="M57.9093 69.7967C61.7263 66.4613 65.5427 63.1248 69.3586 59.7872C66.3012 63.9079 62.3966 67.3214 57.9093 69.7967Z" fill="white"/>
<path d="M119.94 33.5H114.687L113.186 29.2378H104.332L102.801 33.5H97.6983L105.502 12.489H112.256L119.94 33.5ZM111.776 25.1856L108.804 16.6612L105.773 25.1856H111.776ZM129.29 33.7101C127.869 33.7101 126.508 33.46 125.208 32.9597C123.927 32.4394 122.826 31.689 121.906 30.7085C121.005 29.728 120.405 28.5474 120.105 27.1667L125.087 26.1161C125.388 27.2967 125.928 28.1872 126.708 28.7875C127.489 29.3678 128.399 29.658 129.44 29.658C130.22 29.658 130.871 29.4979 131.391 29.1777C131.911 28.8576 132.171 28.3573 132.171 27.6769C132.171 27.1166 131.981 26.6964 131.601 26.4163C131.221 26.1161 130.56 25.796 129.62 25.4558L125.718 24.075C124.057 23.4947 122.816 22.7944 121.996 21.9739C121.195 21.1335 120.795 19.9629 120.795 18.4621C120.795 17.3615 121.095 16.341 121.696 15.4005C122.296 14.46 123.176 13.7096 124.337 13.1493C125.518 12.569 126.928 12.2788 128.569 12.2788C130.911 12.2788 132.832 12.8091 134.332 13.8697C135.833 14.9302 136.864 16.371 137.424 18.192L132.291 19.2425C132.031 18.302 131.551 17.5816 130.85 17.0814C130.17 16.5811 129.33 16.331 128.329 16.331C127.549 16.331 126.948 16.5011 126.528 16.8412C126.108 17.1614 125.898 17.5716 125.898 18.0719C125.898 18.5121 126.088 18.8823 126.468 19.1825C126.868 19.4626 127.439 19.7328 128.179 19.9929L132.051 21.3136C135.533 22.5142 137.274 24.4953 137.274 27.2567C137.274 29.1177 136.624 30.6585 135.323 31.8791C134.042 33.0998 132.031 33.7101 129.29 33.7101ZM137.283 12.489H142.715L147.308 20.203L151.93 12.489H157.003L149.769 24.5253V33.5H144.516V24.5253L137.283 12.489ZM163.499 21.0735V33.5H158.546V12.489H165L170.522 26.7765L175.835 12.489H182.289V33.5H177.336V20.5332L172.503 33.5H168.331L163.499 21.0735ZM190.532 21.0735V33.5H185.579V12.489H192.032L197.555 26.7765L202.868 12.489H209.322V33.5H204.369V20.5332L199.536 33.5H195.364L190.532 21.0735ZM212.612 12.489H227.05V16.5411H217.865V20.7133H225.519V24.7654H217.865V29.4479H227.05V33.5H212.612V12.489ZM234.363 16.5411H228.36V12.489H245.619V16.5411H239.616V33.5H234.363V16.5411ZM247.684 12.489H256.268C257.949 12.489 259.41 12.7591 260.65 13.2994C261.911 13.8397 262.872 14.6101 263.532 15.6106C264.212 16.6111 264.552 17.7817 264.552 19.1224C264.552 20.5432 264.182 21.7638 263.442 22.7844C262.701 23.8049 261.671 24.5253 260.35 24.9455L265.753 33.5H259.96L255.818 26.4163H252.936V33.5H247.684V12.489ZM255.368 22.3641C257.889 22.3641 259.15 21.3936 259.15 19.4526C259.15 17.5116 257.889 16.5411 255.368 16.5411H252.936V22.3641H255.368ZM264.862 12.489H270.295L274.888 20.203L279.51 12.489H284.583L277.349 24.5253V33.5H272.096V24.5253L264.862 12.489ZM99.109 41.489H113.847V45.5411H104.362V50.2836H112.316V54.3357H104.362V62.5H99.109V41.489ZM115.971 41.489H121.223V62.5H115.971V41.489ZM124.537 41.489H130.09L137.894 54.1556V41.489H142.846V62.5H137.894L129.489 48.9629V62.5H124.537V41.489ZM166.978 62.5H161.725L160.224 58.2378H151.37L149.839 62.5H144.736L152.54 41.489H159.294L166.978 62.5ZM158.814 54.1856L155.842 45.6612L152.811 54.1856H158.814ZM168.871 41.489H174.424L182.228 54.1556V41.489H187.181V62.5H182.228L173.824 48.9629V62.5H168.871V41.489ZM200.116 62.7101C197.975 62.7101 196.104 62.2799 194.503 61.4194C192.923 60.559 191.702 59.3283 190.841 57.7275C189.981 56.1066 189.551 54.1956 189.551 51.9945C189.551 49.8734 189.981 48.0024 190.841 46.3815C191.722 44.7607 192.953 43.51 194.533 42.6296C196.114 41.7291 197.925 41.2788 199.966 41.2788C202.408 41.2788 204.429 41.9292 206.029 43.2299C207.65 44.5105 208.751 46.2915 209.331 48.5727L204.168 49.7133C203.448 46.9919 202.007 45.6311 199.846 45.6311C198.886 45.6311 198.035 45.8913 197.295 46.4115C196.554 46.9118 195.974 47.6222 195.554 48.5427C195.154 49.4631 194.954 50.5237 194.954 51.7243C194.954 53.8054 195.414 55.4363 196.334 56.6169C197.275 57.7775 198.556 58.3578 200.176 58.3578C201.257 58.3578 202.177 58.0377 202.938 57.3973C203.718 56.757 204.208 55.8165 204.409 54.5758L209.541 55.7765C209.181 57.1172 208.561 58.3178 207.68 59.3784C206.82 60.4189 205.739 61.2393 204.439 61.8397C203.138 62.42 201.697 62.7101 200.116 62.7101ZM211.622 41.489H226.06V45.5411H216.875V49.7133H224.529V53.7654H216.875V58.4479H226.06V62.5H211.622V41.489Z" fill="white"/>
</svg>
